<svg xmlns="http://www.w3.org/2000/svg" viewBox="0 0 1024 1024" role="img" aria-labelledby="title desc">
  <title id="title">Overtime Calculator Icon Concept 1</title>
  <desc id="desc">A simplified app icon with a rounded calendar card and a bold clock face.</desc>
  <defs>
    <linearGradient id="bg" x1="156" y1="124" x2="860" y2="900" gradientUnits="userSpaceOnUse">
      <stop offset="0" stop-color="#eff3ff"/>
      <stop offset="1" stop-color="#bed0ff"/>
    </linearGradient>
    <linearGradient id="accent" x1="576" y1="394" x2="694" y2="500" gradientUnits="userSpaceOnUse">
      <stop offset="0" stop-color="#ffd782"/>
      <stop offset="1" stop-color="#f0aa3c"/>
    </linearGradient>
    <filter id="shadow" x="-20%" y="-20%" width="140%" height="140%">
      <feDropShadow dx="0" dy="18" stdDeviation="24" flood-color="#4d5f97" flood-opacity="0.16"/>
    </filter>
  </defs>

  <rect x="64" y="64" width="896" height="896" rx="248" fill="url(#bg)"/>

  <g filter="url(#shadow)">
    <rect x="232" y="204" width="560" height="616" rx="156" fill="#fcfdff"/>
    <path d="M388 204h248c86.16 0 156 69.84 156 156v16H232v-16c0-86.16 69.84-156 156-156z" fill="#5f76bf"/>
    <rect x="318" y="160" width="56" height="108" rx="28" fill="#34497e"/>
    <rect x="650" y="160" width="56" height="108" rx="28" fill="#34497e"/>

    <circle cx="512" cy="548" r="170" fill="#314677"/>
    <path d="M512 378a170 170 0 0 1 144 80l-60 32a102 102 0 0 0-84-44z" fill="url(#accent)"/>
    <circle cx="512" cy="548" r="22" fill="#fcfdff"/>
    <path d="M512 548V454" stroke="#fcfdff" stroke-width="30" stroke-linecap="round"/>
    <path d="M512 548l88 56" stroke="#fcfdff" stroke-width="30" stroke-linecap="round"/>
  </g>
</svg>
